<svg width="48" height="47" viewBox="0 0 48 47" fill="none" xmlns="http://www.w3.org/2000/svg">
<path d="M47.1479 0.0401528L0.405473 17.4263C0.282448 17.4721 0.177188 17.5545 0.104527 17.6619C0.0318651 17.7694 -0.00453621 17.8964 0.000452009 18.0252C0.00544023 18.154 0.0515665 18.278 0.132331 18.3797C0.213096 18.4815 0.324429 18.5558 0.450641 18.5923L22.4992 24.9696L29.0121 46.5588C29.0493 46.6824 29.1252 46.7915 29.2291 46.8707C29.333 46.9499 29.4597 46.9951 29.5913 47C29.5994 47 29.6073 47 29.6153 47C29.7428 47 29.8673 46.962 29.9722 46.8911C30.0772 46.8202 30.1576 46.7197 30.2029 46.603L47.959 0.834394C48.002 0.723459 48.0114 0.602705 47.986 0.486666C47.9606 0.370627 47.9015 0.264247 47.8158 0.180332C47.7301 0.0964164 47.6215 0.0385409 47.503 0.0136713C47.3845 -0.0111983 47.2612 -0.00200217 47.1479 0.0401528V0.0401528ZM2.59586 17.9288L44.8527 2.21108L22.8251 23.7798L2.59586 17.9288ZM29.6897 44.4582L23.7142 24.6504L45.7419 3.08177L29.6897 44.4582Z" fill="#0A0202"/>
</svg>
